<?xml version="1.0" standalone="no"?>
<!DOCTYPE svg PUBLIC "-//W3C//DTD SVG 20010904//EN"
 "http://www.w3.org/TR/2001/REC-SVG-20010904/DTD/svg10.dtd">
<svg version="1.0" xmlns="http://www.w3.org/2000/svg"
 width="180.000000pt" height="198.000000pt" viewBox="0 0 180.000000 198.000000"
 preserveAspectRatio="xMidYMid meet">

<g transform="translate(0.000000,198.000000) scale(0.100000,-0.100000)"
fill="#000000" stroke="none">
<path d="M754 1880 c-82 -39 -190 -171 -181 -222 3 -22 4 -22 12 -3 18 43 95
151 122 171 69 50 167 58 245 20 82 -39 173 -170 193 -276 l6 -36 -83 -28
c-46 -16 -111 -42 -146 -58 l-63 -29 -82 35 c-188 80 -293 106 -424 105 -102
0 -155 -18 -208 -68 -50 -46 -65 -90 -65 -182 0 -161 94 -338 270 -510 38 -37
84 -79 103 -93 32 -24 35 -32 46 -109 19 -134 29 -191 36 -208 8 -22 -20 -29
-114 -29 -146 0 -271 59 -317 150 -16 31 -24 39 -24 24 0 -31 55 -108 99 -137
61 -40 149 -59 265 -56 80 2 101 0 104 -12 19 -64 80 -164 122 -203 73 -65
112 -81 200 -81 68 0 80 3 126 32 74 48 125 117 163 218 l19 50 44 -5 c23 -3
106 -5 183 -4 161 0 190 9 248 73 53 58 64 108 44 203 -18 91 -59 180 -122
266 -52 71 -52 59 8 127 34 37 104 150 121 194 60 154 -25 325 -179 362 -66
16 -184 14 -276 -5 -40 -9 -75 -16 -76 -16 -2 0 -3 6 -3 14 0 63 -84 221 -147
277 -79 69 -185 88 -269 49z m777 -341 c61 -18 143 -101 159 -160 27 -100 -19
-217 -148 -377 l-35 -42 -61 59 c-73 70 -115 106 -177 150 l-46 32 -17 132
c-10 73 -20 144 -22 159 -6 31 -7 31 122 53 87 16 158 14 225 -6z m-1018 -18
c8 -8 6 -48 -6 -133 -10 -68 -17 -137 -17 -155 0 -27 -7 -37 -47 -65 -27 -17
-54 -38 -62 -46 -8 -7 -24 -20 -37 -29 -13 -8 -24 -19 -24 -24 0 -19 26 -8 79
34 31 24 61 46 67 50 7 4 10 -61 10 -209 0 -118 -4 -214 -8 -214 -21 0 -208
203 -259 280 -80 120 -109 199 -109 294 0 48 6 87 16 108 20 42 86 91 144 107
25 8 50 15 55 17 21 8 188 -5 198 -15z m133 -37 c112 -42 178 -75 168 -83 -5
-5 -40 -25 -79 -46 -38 -21 -101 -57 -138 -81 -37 -24 -70 -44 -73 -44 -4 0
-4 15 0 33 3 17 10 73 16 124 11 96 17 123 30 123 4 0 39 -12 76 -26z m518 4
c2 -13 10 -63 16 -113 6 -49 13 -102 15 -117 3 -16 0 -28 -5 -28 -5 0 -40 20
-77 43 -37 24 -103 63 -146 86 -92 50 -93 48 48 104 145 56 143 56 149 25z
m-179 -168 c50 -29 99 -58 110 -64 11 -6 40 -25 64 -41 l44 -29 -7 -255 c-4
-139 -10 -260 -13 -267 -6 -15 -181 -134 -235 -160 l-37 -17 -61 36 c-61 37
-90 46 -90 27 0 -5 21 -23 48 -41 26 -18 49 -34 52 -36 2 -2 -2 -8 -10 -13
-21 -13 -200 -70 -242 -77 l-36 -5 -15 73 c-9 41 -19 101 -22 134 l-6 60 83 0
c80 0 86 2 161 45 83 47 217 168 261 235 38 57 37 131 -2 168 -32 31 -81 35
-122 12 -29 -17 -76 -19 -85 -5 -12 19 -78 11 -102 -12 -28 -26 -31 -82 -6
-118 22 -34 84 -89 106 -96 35 -11 29 5 -11 30 -51 32 -83 77 -89 124 -6 48
13 67 59 58 80 -17 116 -18 146 -2 69 35 112 8 112 -72 0 -67 -61 -145 -185
-236 -148 -109 -225 -136 -297 -102 -32 15 -36 22 -42 69 -7 66 -8 370 0 417
5 32 16 42 117 105 158 100 213 126 240 116 12 -5 63 -32 112 -61z m305 -199
c53 -41 190 -173 190 -182 0 -14 -234 -239 -248 -239 -4 0 -7 105 -7 234 0
153 3 232 10 228 6 -3 30 -21 55 -41z m243 -243 c83 -110 125 -210 134 -313 5
-68 5 -71 -29 -115 -18 -25 -52 -54 -73 -64 -52 -25 -183 -32 -293 -16 l-84
12 8 57 c4 31 12 92 18 137 l11 80 85 75 c47 40 107 97 135 126 27 29 53 53
57 53 4 0 18 -15 31 -32z m-359 -335 c-3 -43 -10 -95 -15 -115 -9 -36 -10 -37
-42 -27 -76 25 -167 65 -164 73 2 5 21 18 42 30 22 12 72 43 110 69 39 25 71
46 73 47 2 0 0 -35 -4 -77z m-191 -128 c28 -13 76 -31 105 -41 28 -9 52 -21
52 -26 0 -25 -68 -144 -107 -188 -103 -115 -231 -114 -346 3 -43 43 -90 121
-100 167 -6 24 -3 26 76 44 45 11 114 32 152 48 76 30 90 29 168 -7z"/>
<path d="M97 793 c-9 -21 -19 -56 -22 -78 -4 -33 -2 -29 14 20 10 33 22 68 26
78 14 34 -2 16 -18 -20z"/>
<path d="M72 580 c0 -14 2 -19 5 -12 2 6 2 18 0 25 -3 6 -5 1 -5 -13z"/>
</g>
</svg>
